<?xml version="1.0" encoding="utf-8"?>
<svg version="1.1" class="rubiks-cube" xmlns="http://www.w3.org/2000/svg" xmlns:xlink="http://www.w3.org/1999/xlink" x="0px" y="0px"
viewBox="0 0 130 130" enable-background="new 0 0 130 130" xml:space="preserve">
	<g class="cube">
		<g class="green front">
			<path class="box" d="M94,96H36c-1.1,0-2-0.9-2-2V36c0-1.1,0.9-2,2-2h58c1.1,0,2,0.9,2,2v58C96,95.1,95.1,96,94,96z"/>
			<path d="M53,54H37c-0.5,0-1-0.5-1-1V37c0-0.5,0.5-1,1-1h16c0.5,0,1,0.5,1,1v16C54,53.5,53.5,54,53,54z"/>
			<path d="M73,54H57c-0.5,0-1-0.5-1-1V37c0-0.5,0.5-1,1-1h16c0.6,0,1,0.5,1,1v16C74,53.5,73.6,54,73,54z"/>
			<path d="M93,54H77c-0.6,0-1-0.5-1-1V37c0-0.5,0.4-1,1-1h16c0.6,0,1,0.5,1,1v16C94,53.5,93.6,54,93,54z"/>
			<path d="M53,74H37c-0.5,0-1-0.4-1-1V57c0-0.5,0.5-1,1-1h16c0.5,0,1,0.5,1,1v16C54,73.6,53.5,74,53,74z"/>
			<path d="M73,74H57c-0.5,0-1-0.4-1-1V57c0-0.5,0.5-1,1-1h16c0.6,0,1,0.5,1,1v16C74,73.6,73.6,74,73,74z"/>
			<path d="M93,74H77c-0.6,0-1-0.4-1-1V57c0-0.5,0.4-1,1-1h16c0.6,0,1,0.5,1,1v16C94,73.6,93.6,74,93,74z"/>
			<path d="M53,94H37c-0.5,0-1-0.4-1-1V77c0-0.6,0.5-1,1-1h16c0.5,0,1,0.4,1,1v16C54,93.6,53.5,94,53,94z"/>
			<path d="M73,94H57c-0.5,0-1-0.4-1-1V77c0-0.6,0.5-1,1-1h16c0.6,0,1,0.4,1,1v16C74,93.6,73.6,94,73,94z"/>
			<path d="M93,94H77c-0.6,0-1-0.4-1-1V77c0-0.6,0.4-1,1-1h16c0.6,0,1,0.4,1,1v16C94,93.6,93.6,94,93,94z"/>
		</g>
		<g class="red back">
			<path class="box" d="M94,96H36c-1.1,0-2-0.9-2-2V36c0-1.1,0.9-2,2-2h58c1.1,0,2,0.9,2,2v58C96,95.1,95.1,96,94,96z"/>
			<path d="M53,54H37c-0.5,0-1-0.5-1-1V37c0-0.5,0.5-1,1-1h16c0.5,0,1,0.5,1,1v16C54,53.5,53.5,54,53,54z"/>
			<path d="M73,54H57c-0.5,0-1-0.5-1-1V37c0-0.5,0.5-1,1-1h16c0.6,0,1,0.5,1,1v16C74,53.5,73.6,54,73,54z"/>
			<path d="M93,54H77c-0.6,0-1-0.5-1-1V37c0-0.5,0.4-1,1-1h16c0.6,0,1,0.5,1,1v16C94,53.5,93.6,54,93,54z"/>
			<path d="M53,74H37c-0.5,0-1-0.4-1-1V57c0-0.5,0.5-1,1-1h16c0.5,0,1,0.5,1,1v16C54,73.6,53.5,74,53,74z"/>
			<path d="M73,74H57c-0.5,0-1-0.4-1-1V57c0-0.5,0.5-1,1-1h16c0.6,0,1,0.5,1,1v16C74,73.6,73.6,74,73,74z"/>
			<path d="M93,74H77c-0.6,0-1-0.4-1-1V57c0-0.5,0.4-1,1-1h16c0.6,0,1,0.5,1,1v16C94,73.6,93.6,74,93,74z"/>
			<path d="M53,94H37c-0.5,0-1-0.4-1-1V77c0-0.6,0.5-1,1-1h16c0.5,0,1,0.4,1,1v16C54,93.6,53.5,94,53,94z"/>
			<path d="M73,94H57c-0.5,0-1-0.4-1-1V77c0-0.6,0.5-1,1-1h16c0.6,0,1,0.4,1,1v16C74,93.6,73.6,94,73,94z"/>
			<path d="M93,94H77c-0.6,0-1-0.4-1-1V77c0-0.6,0.4-1,1-1h16c0.6,0,1,0.4,1,1v16C94,93.6,93.6,94,93,94z"/>
		</g>
		<g class="white right">
			<path class="box" d="M94,96H36c-1.1,0-2-0.9-2-2V36c0-1.1,0.9-2,2-2h58c1.1,0,2,0.9,2,2v58C96,95.1,95.1,96,94,96z"/>
			<path d="M53,54H37c-0.5,0-1-0.5-1-1V37c0-0.5,0.5-1,1-1h16c0.5,0,1,0.5,1,1v16C54,53.5,53.5,54,53,54z"/>
			<path d="M73,54H57c-0.5,0-1-0.5-1-1V37c0-0.5,0.5-1,1-1h16c0.6,0,1,0.5,1,1v16C74,53.5,73.6,54,73,54z"/>
			<path d="M93,54H77c-0.6,0-1-0.5-1-1V37c0-0.5,0.4-1,1-1h16c0.6,0,1,0.5,1,1v16C94,53.5,93.6,54,93,54z"/>
			<path d="M53,74H37c-0.5,0-1-0.4-1-1V57c0-0.5,0.5-1,1-1h16c0.5,0,1,0.5,1,1v16C54,73.6,53.5,74,53,74z"/>
			<path d="M73,74H57c-0.5,0-1-0.4-1-1V57c0-0.5,0.5-1,1-1h16c0.6,0,1,0.5,1,1v16C74,73.6,73.6,74,73,74z"/>
			<path d="M93,74H77c-0.6,0-1-0.4-1-1V57c0-0.5,0.4-1,1-1h16c0.6,0,1,0.5,1,1v16C94,73.6,93.6,74,93,74z"/>
			<path d="M53,94H37c-0.5,0-1-0.4-1-1V77c0-0.6,0.5-1,1-1h16c0.5,0,1,0.4,1,1v16C54,93.6,53.5,94,53,94z"/>
			<path d="M73,94H57c-0.5,0-1-0.4-1-1V77c0-0.6,0.5-1,1-1h16c0.6,0,1,0.4,1,1v16C74,93.6,73.6,94,73,94z"/>
			<path d="M93,94H77c-0.6,0-1-0.4-1-1V77c0-0.6,0.4-1,1-1h16c0.6,0,1,0.4,1,1v16C94,93.6,93.6,94,93,94z"/>
		</g>
		<g class="blue left">
			<path class="box" d="M94,96H36c-1.1,0-2-0.9-2-2V36c0-1.1,0.9-2,2-2h58c1.1,0,2,0.9,2,2v58C96,95.1,95.1,96,94,96z"/>
			<path d="M53,54H37c-0.5,0-1-0.5-1-1V37c0-0.5,0.5-1,1-1h16c0.5,0,1,0.5,1,1v16C54,53.5,53.5,54,53,54z"/>
			<path d="M73,54H57c-0.5,0-1-0.5-1-1V37c0-0.5,0.5-1,1-1h16c0.6,0,1,0.5,1,1v16C74,53.5,73.6,54,73,54z"/>
			<path d="M93,54H77c-0.6,0-1-0.5-1-1V37c0-0.5,0.4-1,1-1h16c0.6,0,1,0.5,1,1v16C94,53.5,93.6,54,93,54z"/>
			<path d="M53,74H37c-0.5,0-1-0.4-1-1V57c0-0.5,0.5-1,1-1h16c0.5,0,1,0.5,1,1v16C54,73.6,53.5,74,53,74z"/>
			<path d="M73,74H57c-0.5,0-1-0.4-1-1V57c0-0.5,0.5-1,1-1h16c0.6,0,1,0.5,1,1v16C74,73.6,73.6,74,73,74z"/>
			<path d="M93,74H77c-0.6,0-1-0.4-1-1V57c0-0.5,0.4-1,1-1h16c0.6,0,1,0.5,1,1v16C94,73.6,93.6,74,93,74z"/>
			<path d="M53,94H37c-0.5,0-1-0.4-1-1V77c0-0.6,0.5-1,1-1h16c0.5,0,1,0.4,1,1v16C54,93.6,53.5,94,53,94z"/>
			<path d="M73,94H57c-0.5,0-1-0.4-1-1V77c0-0.6,0.5-1,1-1h16c0.6,0,1,0.4,1,1v16C74,93.6,73.6,94,73,94z"/>
			<path d="M93,94H77c-0.6,0-1-0.4-1-1V77c0-0.6,0.4-1,1-1h16c0.6,0,1,0.4,1,1v16C94,93.6,93.6,94,93,94z"/>
		</g>
		<g class="orange top">
			<path class="box" d="M94,96H36c-1.1,0-2-0.9-2-2V36c0-1.1,0.9-2,2-2h58c1.1,0,2,0.9,2,2v58C96,95.1,95.1,96,94,96z"/>
			<path d="M53,54H37c-0.5,0-1-0.5-1-1V37c0-0.5,0.5-1,1-1h16c0.5,0,1,0.5,1,1v16C54,53.5,53.5,54,53,54z"/>
			<path d="M73,54H57c-0.5,0-1-0.5-1-1V37c0-0.5,0.5-1,1-1h16c0.6,0,1,0.5,1,1v16C74,53.5,73.6,54,73,54z"/>
			<path d="M93,54H77c-0.6,0-1-0.5-1-1V37c0-0.5,0.4-1,1-1h16c0.6,0,1,0.5,1,1v16C94,53.5,93.6,54,93,54z"/>
			<path d="M53,74H37c-0.5,0-1-0.4-1-1V57c0-0.5,0.5-1,1-1h16c0.5,0,1,0.5,1,1v16C54,73.6,53.5,74,53,74z"/>
			<path d="M73,74H57c-0.5,0-1-0.4-1-1V57c0-0.5,0.5-1,1-1h16c0.6,0,1,0.5,1,1v16C74,73.6,73.6,74,73,74z"/>
			<path d="M93,74H77c-0.6,0-1-0.4-1-1V57c0-0.5,0.4-1,1-1h16c0.6,0,1,0.5,1,1v16C94,73.6,93.6,74,93,74z"/>
			<path d="M53,94H37c-0.5,0-1-0.4-1-1V77c0-0.6,0.5-1,1-1h16c0.5,0,1,0.4,1,1v16C54,93.6,53.5,94,53,94z"/>
			<path d="M73,94H57c-0.5,0-1-0.4-1-1V77c0-0.6,0.5-1,1-1h16c0.6,0,1,0.4,1,1v16C74,93.6,73.6,94,73,94z"/>
			<path d="M93,94H77c-0.6,0-1-0.4-1-1V77c0-0.6,0.4-1,1-1h16c0.6,0,1,0.4,1,1v16C94,93.6,93.6,94,93,94z"/>
		</g>
		<g class="yellow bottom">
			<path class="box" d="M94,96H36c-1.1,0-2-0.9-2-2V36c0-1.1,0.9-2,2-2h58c1.1,0,2,0.9,2,2v58C96,95.1,95.1,96,94,96z"/>
			<path d="M53,54H37c-0.5,0-1-0.5-1-1V37c0-0.5,0.5-1,1-1h16c0.5,0,1,0.5,1,1v16C54,53.5,53.5,54,53,54z"/>
			<path d="M73,54H57c-0.5,0-1-0.5-1-1V37c0-0.5,0.5-1,1-1h16c0.6,0,1,0.5,1,1v16C74,53.5,73.6,54,73,54z"/>
			<path d="M93,54H77c-0.6,0-1-0.5-1-1V37c0-0.5,0.4-1,1-1h16c0.6,0,1,0.5,1,1v16C94,53.5,93.6,54,93,54z"/>
			<path d="M53,74H37c-0.5,0-1-0.4-1-1V57c0-0.5,0.5-1,1-1h16c0.5,0,1,0.5,1,1v16C54,73.6,53.5,74,53,74z"/>
			<path d="M73,74H57c-0.5,0-1-0.4-1-1V57c0-0.5,0.5-1,1-1h16c0.6,0,1,0.5,1,1v16C74,73.6,73.6,74,73,74z"/>
			<path d="M93,74H77c-0.6,0-1-0.4-1-1V57c0-0.5,0.4-1,1-1h16c0.6,0,1,0.5,1,1v16C94,73.6,93.6,74,93,74z"/>
			<path d="M53,94H37c-0.5,0-1-0.4-1-1V77c0-0.6,0.5-1,1-1h16c0.5,0,1,0.4,1,1v16C54,93.6,53.5,94,53,94z"/>
			<path d="M73,94H57c-0.5,0-1-0.4-1-1V77c0-0.6,0.5-1,1-1h16c0.6,0,1,0.4,1,1v16C74,93.6,73.6,94,73,94z"/>
			<path d="M93,94H77c-0.6,0-1-0.4-1-1V77c0-0.6,0.4-1,1-1h16c0.6,0,1,0.4,1,1v16C94,93.6,93.6,94,93,94z"/>
		</g>
	</g>
</svg>
