<svg version="1.1" class="full-logo" xmlns="http://www.w3.org/2000/svg" xmlns:xlink="http://www.w3.org/1999/xlink" x="0px" y="0px"
	 viewBox="0 0 259.5 67.6" style="enable-background:new 0 0 259.5 67.6;" xml:space="preserve">
<path class="line-1" d="M10.6,56.8c0,0,22.8-15.8,25.2-30c2.3-14.2-7-13.7-11.5-10.3s-12.2,16.7-6.2,19.2c6.2,2.6,12-9.5,12-9.5"/>
<path class="line-2" d="M18.7,51.7c0,0,19.3-14.3,19.3-28.8"/>
<path class="line-3" d="M17.6,21c0,0-10.7,13.3-4.2,18.3s13.4-4.6,14.2-7.3"/>
<path class="line-4" d="M41.2,49.2c0,0-0.5-15,14-29.3s20.3-2,18.7,4.7S68.4,44,58.6,53.1s-17.3-1.4-17.3-1.4"/>
<path class="line-5" d="M59.7,46.7c0,0-8.3,14.3-13.7,4.2"/>
<path class="line-6" d="M62.9,43.3c0,0,8.1-11.8,7.8-20.5s-3.4-10.8-13-1.2s-11.6,21-10.6,25s2.7,9.3,7.2,3.9"/>
<path class="line-7" d="M104.6,31.5L91.9,55.2c0,0,4.2-6.2,9.5-11.8s8.3-9.5,11-7.5s-6.2,19.3-6.2,19.3s12.3-20,16.2-20.2
	c3.8-0.2,0.2,11.2-2.5,16.3s7,3.3,10.7-2.8c3.7-6.2,7.3-15.8,7.3-15.8s-5.5,15.2-5.5,17.7s3.3,8,8.5,0.8s11.8-19.7,11.8-19.7
	l-11,23.7c0,0,4.5-8.3,9.8-13.8s13.7-9.8,9.3-1.5c-4.3,8.3-6.8,15.5-1.5,14.5s10.5-10.2,17.8-22.8c0,0-8.5,14.7-7.7,19.2
	s5.2,5.3,7.7,1.5s13.7-20.7,13.7-20.7s-8.2,12.2-8.3,17c-0.2,4.8,3.5,8.3,7.3,3.3s18.3-36,18.3-36s-14,30.2-12.8,33.8
	c1.2,3.7,1.2,8,9.8,1.2s20.5-18.3,20.5-18.3s-9-5.2-15.2,8.8s7.3,16.8,13,9.2c5.7-7.7,12.7-20.7,12.7-20.7s2.2,6,3.5,11.8
	s-5.2,16.7-12.8,10.5c0,0,13.2,10.3,20.2-10.7"/>
<path class="line-8" d="M143.1,25.2c0,0-1,3.5-2.7,2s-1.5-3.7,0-3.7"/>
<path class="line-9" d="M193.7,27.2c0,0,10.6-6.2,31.5-9.3"/>
</svg>
